<mxfile host="app.diagrams.net" agent="Mozilla/5.0 (Windows NT 10.0; Win64; x64) AppleWebKit/537.36 (KHTML, like Gecko) Chrome/129.0.0.0 Safari/537.36" version="24.7.16">
  <diagram name="Page-1" id="CBBNJy-QDgzTir89KddK">
    <mxGraphModel dx="2261" dy="744" grid="1" gridSize="10" guides="1" tooltips="1" connect="1" arrows="1" fold="1" page="1" pageScale="1" pageWidth="827" pageHeight="1169" background="#dcdce5" math="0" shadow="0">
      <root>
        <mxCell id="0" />
        <mxCell id="1" parent="0" />
        <mxCell id="zJVQi5kHX6_gb_kTTG_k-1" value="smartphone, narrow device" style="shape=step;perimeter=stepPerimeter;whiteSpace=wrap;html=1;fixedSize=1;gradientColor=#B9E0A5;gradientDirection=east;fillColor=#D4E1F5;" vertex="1" parent="1">
          <mxGeometry x="80" y="320" width="240" height="80" as="geometry" />
        </mxCell>
        <mxCell id="zJVQi5kHX6_gb_kTTG_k-2" value="medium device" style="shape=step;perimeter=stepPerimeter;whiteSpace=wrap;html=1;fixedSize=1;gradientColor=#FFE599;gradientDirection=east;fillColor=#B9E0A5;" vertex="1" parent="1">
          <mxGeometry x="300" y="320" width="240" height="80" as="geometry" />
        </mxCell>
        <mxCell id="zJVQi5kHX6_gb_kTTG_k-3" value="computer, large device&lt;div&gt;(default)&lt;/div&gt;" style="shape=step;perimeter=stepPerimeter;whiteSpace=wrap;html=1;fixedSize=1;gradientColor=#F8CECC;fillColor=#FFE599;gradientDirection=east;" vertex="1" parent="1">
          <mxGeometry x="520" y="320" width="240" height="80" as="geometry" />
        </mxCell>
        <mxCell id="zJVQi5kHX6_gb_kTTG_k-4" value="&lt;b&gt;&lt;font style=&quot;font-size: 18px;&quot;&gt;Breakpoints&lt;/font&gt;&lt;/b&gt;&lt;div&gt;&lt;font style=&quot;font-size: 14px;&quot;&gt;based on width&lt;/font&gt;&lt;/div&gt;" style="text;html=1;align=center;verticalAlign=middle;whiteSpace=wrap;rounded=0;" vertex="1" parent="1">
          <mxGeometry x="-100" y="270" width="170" height="30" as="geometry" />
        </mxCell>
        <mxCell id="zJVQi5kHX6_gb_kTTG_k-5" value="&lt;b&gt;0&lt;/b&gt;" style="ellipse;whiteSpace=wrap;html=1;aspect=fixed;fillColor=#dae8fc;strokeColor=#6c8ebf;" vertex="1" parent="1">
          <mxGeometry x="50" y="255" width="60" height="60" as="geometry" />
        </mxCell>
        <mxCell id="zJVQi5kHX6_gb_kTTG_k-6" value="&lt;b&gt;910&lt;/b&gt;" style="ellipse;whiteSpace=wrap;html=1;aspect=fixed;fillColor=#d5e8d4;strokeColor=#82b366;" vertex="1" parent="1">
          <mxGeometry x="270" y="255" width="60" height="60" as="geometry" />
        </mxCell>
        <mxCell id="zJVQi5kHX6_gb_kTTG_k-7" value="&lt;b&gt;1200&lt;/b&gt;" style="ellipse;whiteSpace=wrap;html=1;aspect=fixed;fillColor=#ffe6cc;strokeColor=#d79b00;" vertex="1" parent="1">
          <mxGeometry x="490" y="255" width="60" height="60" as="geometry" />
        </mxCell>
        <mxCell id="zJVQi5kHX6_gb_kTTG_k-9" value="&lt;b&gt;infinity&lt;/b&gt;" style="ellipse;whiteSpace=wrap;html=1;aspect=fixed;fillColor=#f8cecc;strokeColor=#b85450;" vertex="1" parent="1">
          <mxGeometry x="710" y="255" width="60" height="60" as="geometry" />
        </mxCell>
        <mxCell id="zJVQi5kHX6_gb_kTTG_k-10" value="&lt;font style=&quot;font-size: 14px;&quot;&gt;Expected media&lt;/font&gt;" style="text;html=1;align=center;verticalAlign=middle;whiteSpace=wrap;rounded=0;" vertex="1" parent="1">
          <mxGeometry x="-75" y="345" width="120" height="30" as="geometry" />
        </mxCell>
        <mxCell id="zJVQi5kHX6_gb_kTTG_k-11" value="&lt;font style=&quot;font-size: 14px;&quot;&gt;Behavior&lt;/font&gt;" style="text;html=1;align=center;verticalAlign=middle;whiteSpace=wrap;rounded=0;" vertex="1" parent="1">
          <mxGeometry x="-75" y="430" width="120" height="30" as="geometry" />
        </mxCell>
        <mxCell id="zJVQi5kHX6_gb_kTTG_k-12" value="&lt;h1 style=&quot;margin-top: 0px;&quot;&gt;Small&lt;/h1&gt;&lt;p style=&quot;&quot;&gt;Website switches to a one colum&amp;nbsp;&lt;span style=&quot;background-color: initial;&quot;&gt;presentation, commonly used for portrait handheld device.&lt;/span&gt;&lt;/p&gt;" style="text;html=1;whiteSpace=wrap;overflow=hidden;rounded=0;" vertex="1" parent="1">
          <mxGeometry x="110" y="420" width="180" height="120" as="geometry" />
        </mxCell>
        <mxCell id="zJVQi5kHX6_gb_kTTG_k-13" value="&lt;h1 style=&quot;margin-top: 0px;&quot;&gt;Medium&lt;/h1&gt;&lt;p style=&quot;&quot;&gt;Website margins are static, and define to prevent an overcrowed presentation, while keeping the default presentation.&lt;/p&gt;" style="text;html=1;whiteSpace=wrap;overflow=hidden;rounded=0;" vertex="1" parent="1">
          <mxGeometry x="330" y="420" width="180" height="120" as="geometry" />
        </mxCell>
        <mxCell id="zJVQi5kHX6_gb_kTTG_k-14" value="&lt;h1 style=&quot;margin-top: 0px;&quot;&gt;Large&lt;/h1&gt;&lt;p style=&quot;&quot;&gt;Website margins are dynamic (auto) to allow for a fixed width of elements (1200px max), with breathy margins around.&lt;/p&gt;" style="text;html=1;whiteSpace=wrap;overflow=hidden;rounded=0;" vertex="1" parent="1">
          <mxGeometry x="550" y="420" width="180" height="120" as="geometry" />
        </mxCell>
      </root>
    </mxGraphModel>
  </diagram>
</mxfile>
